<svg width="23" height="22" viewBox="0 0 148 142" fill="none" xmlns="http://www.w3.org/2000/svg">
<path d="M54.0994 141.815L121.105 37.3607L0.682793 67.3433L53.2897 86.0027L54.0994 141.815Z" fill="white"/>
<path d="M54.0994 141.815L53.0995 141.829L53.1477 145.151L54.9411 142.355L54.0994 141.815ZM121.105 37.3607L121.946 37.9007L123.305 35.7823L120.863 36.3904L121.105 37.3607ZM0.682793 67.3433L0.44119 66.3729L-2.78195 67.1754L0.348504 68.2857L0.682793 67.3433ZM53.2897 86.0027L54.2896 85.9881L54.2795 85.2927L53.624 85.0602L53.2897 86.0027ZM54.9411 142.355L121.946 37.9007L120.263 36.8208L53.2577 141.275L54.9411 142.355ZM120.863 36.3904L0.44119 66.3729L0.924396 68.3136L121.346 38.3311L120.863 36.3904ZM0.348504 68.2857L52.9555 86.9451L53.624 85.0602L1.01708 66.4008L0.348504 68.2857ZM52.2898 86.0172L53.0995 141.829L55.0993 141.8L54.2896 85.9881L52.2898 86.0172Z" fill="black"/>
</svg>
